%TF.GenerationSoftware,KiCad,Pcbnew,(6.0.11)*%
%TF.CreationDate,2023-08-07T18:16:36+02:00*%
%TF.ProjectId,CartHeaderBase,43617274-4865-4616-9465-72426173652e,rev?*%
%TF.SameCoordinates,Original*%
%TF.FileFunction,Profile,NP*%
%FSLAX46Y46*%
G04 Gerber Fmt 4.6, Leading zero omitted, Abs format (unit mm)*
G04 Created by KiCad (PCBNEW (6.0.11)) date 2023-08-07 18:16:36*
%MOMM*%
%LPD*%
G01*
G04 APERTURE LIST*
%TA.AperFunction,Profile*%
%ADD10C,0.050000*%
%TD*%
G04 APERTURE END LIST*
D10*
X193139230Y-91823534D02*
X193144330Y-124353335D01*
X193139197Y-91804181D02*
G75*
G03*
X191909869Y-90576400I-1230297J-2519D01*
G01*
X124483144Y-90133963D02*
G75*
G03*
X123258845Y-91362341I7556J-1231837D01*
G01*
X123291540Y-124906564D02*
G75*
G03*
X124489524Y-126082778I1198860J22864D01*
G01*
X123291600Y-112115600D02*
X123291600Y-124906563D01*
X147177760Y-125586793D02*
X191920029Y-125586793D01*
X124483144Y-90133963D02*
X125984000Y-90133963D01*
X147167600Y-126695200D02*
X147167600Y-125586793D01*
X191920029Y-125586788D02*
G75*
G03*
X193144330Y-124353335I-10229J1234488D01*
G01*
X126644400Y-96621600D02*
X130149600Y-96621600D01*
X130149600Y-96621600D02*
X130149600Y-119634000D01*
X130149600Y-119634000D02*
X126644400Y-119634000D01*
X126644400Y-119634000D02*
X126644400Y-96621600D01*
X125984000Y-89560400D02*
X129336800Y-89560400D01*
X125984000Y-90133963D02*
X125984000Y-89560400D01*
X147167600Y-90576400D02*
X191909869Y-90576400D01*
X129286000Y-126644400D02*
X129286000Y-128168400D01*
X134264400Y-128168400D02*
X134264400Y-126695200D01*
X129336800Y-88036400D02*
X134315200Y-88036400D01*
X115874800Y-104140000D02*
X115874800Y-112115600D01*
X134315200Y-88036400D02*
X134315200Y-89579995D01*
X134315200Y-89579995D02*
X147167600Y-89579995D01*
X125984000Y-126644400D02*
X129286000Y-126644400D01*
X124489524Y-126082778D02*
X125984000Y-126082778D01*
X129336800Y-89560400D02*
X129336800Y-88036400D01*
X134264400Y-126695200D02*
X147167600Y-126695200D01*
X147167600Y-89579995D02*
X147167600Y-90576400D01*
X115874800Y-112115600D02*
X123291600Y-112115600D01*
X123240800Y-104140000D02*
X115874800Y-104140000D01*
X125984000Y-126082778D02*
X125984000Y-126644400D01*
X123258845Y-91362341D02*
X123258845Y-104140000D01*
X129286000Y-128168400D02*
X134264400Y-128168400D01*
M02*
